<?xml version="1.0" standalone="no"?>
<!DOCTYPE svg PUBLIC "-//W3C//DTD SVG 20010904//EN"
 "http://www.w3.org/TR/2001/REC-SVG-20010904/DTD/svg10.dtd">
<svg version="1.0" xmlns="http://www.w3.org/2000/svg"
 width="126.000000pt" height="49.000000pt" viewBox="0 0 126.000000 49.000000"
 preserveAspectRatio="xMidYMid meet">

<g transform="translate(0.000000,49.000000) scale(0.100000,-0.100000)"
fill="#000000" stroke="none">
<path d="M130 453 c-36 -13 -40 -34 -40 -215 0 -165 1 -179 20 -198 19 -19 33
-20 280 -20 247 0 261 1 280 20 19 19 20 33 20 198 0 138 -3 183 -14 198 -14
18 -30 19 -273 21 -142 1 -265 -1 -273 -4z m150 -151 c0 -5 -13 -27 -30 -50
l-29 -41 26 -3 c15 -2 28 -9 31 -15 3 -9 -12 -13 -52 -13 -31 0 -56 4 -56 8 0
5 13 27 30 50 l29 41 -26 3 c-15 2 -28 9 -31 16 -3 8 12 12 52 12 31 0 56 -4
56 -8z m98 -34 c21 -21 14 -66 -13 -84 -23 -15 -27 -15 -50 0 -27 18 -34 63
-13 84 15 15 61 15 76 0z m120 -40 c3 -43 1 -48 -17 -48 -17 0 -21 6 -21 35 0
19 -4 35 -10 35 -5 0 -10 -16 -10 -35 0 -28 -4 -35 -20 -35 -17 0 -20 7 -20
51 l0 50 48 -3 47 -3 3 -47z m100 40 c7 -7 12 -29 12 -49 0 -35 -2 -37 -35
-41 -42 -5 -65 6 -65 33 0 14 9 21 30 26 17 3 30 9 30 14 0 5 -15 6 -32 2 -30
-6 -32 -5 -19 10 16 20 62 22 79 5z"/>
<path d="M330 225 c0 -14 4 -25 9 -25 12 0 23 29 15 41 -10 18 -24 9 -24 -16z"/>
<path d="M550 210 c0 -5 5 -10 10 -10 6 0 10 5 10 10 0 6 -4 10 -10 10 -5 0
-10 -4 -10 -10z"/>
<path d="M759 245 c10 -36 21 -69 24 -72 14 -13 35 8 41 41 9 47 23 46 31 -4
5 -30 11 -40 25 -40 14 0 22 11 30 43 6 23 15 54 20 70 8 23 6 27 -10 27 -15
0 -20 -10 -26 -45 -3 -25 -10 -45 -14 -45 -4 0 -11 20 -14 45 -6 35 -11 45
-26 45 -15 0 -21 -9 -26 -40 -9 -56 -21 -59 -29 -5 -6 34 -12 45 -26 45 -17 0
-17 -2 0 -65z"/>
<path d="M1060 241 l0 -69 38 0 c47 0 62 12 62 53 0 38 -21 60 -50 52 -15 -4
-20 0 -20 14 0 10 -7 19 -15 19 -12 0 -15 -14 -15 -69z m70 -16 c0 -22 -22
-40 -34 -28 -3 4 -6 16 -6 28 0 12 3 24 6 28 12 12 34 -6 34 -28z"/>
<path d="M956 264 c-19 -18 -21 -65 -4 -82 17 -17 63 -15 79 4 11 14 9 15 -21
12 -20 -2 -35 2 -37 10 -3 8 7 12 31 12 25 0 36 5 36 14 0 20 -28 46 -50 46
-10 0 -26 -7 -34 -16z m52 -22 c2 -7 -6 -12 -17 -12 -21 0 -27 11 -14 24 9 9
26 2 31 -12z"/>
</g>
</svg>
